<svg width="239" height="29" viewBox="0 0 239 29" fill="none" xmlns="http://www.w3.org/2000/svg">
<g clip-path="url(#clip0_1564_290296)">
<g clip-path="url(#clip1_1564_290296)">
<path d="M4.2832 5.84481V10.1936H10.2651V4.27539H5.85209C5.43599 4.27539 5.03694 4.44074 4.74272 4.73506C4.4485 5.02939 4.2832 5.42858 4.2832 5.84481Z" fill="white"/>
<path d="M18.751 24.7164H23.1485C23.2497 24.7151 23.3506 24.7047 23.4499 24.6854C23.7497 24.6217 24.0248 24.4727 24.2421 24.2564C24.5356 23.9617 24.7009 23.5629 24.7019 23.1469V18.7363H18.751V24.7164Z" fill="white"/>
<path d="M17.5415 18.7363H11.4785V24.7164H17.5415V18.7363Z" fill="white"/>
<path d="M24.7135 11.4082H18.751V17.4733H24.7135V11.4082Z" fill="white"/>
<path d="M17.5415 4.27539H11.4785V10.1936H17.5415V4.27539Z" fill="white"/>
<path d="M10.2651 11.4082H4.2832V17.4733H10.2651V11.4082Z" fill="white"/>
<path d="M25.4667 4.19446C25.353 4.04088 25.2235 3.89966 25.0803 3.77311C24.5967 3.31488 23.9676 3.04123 23.3028 3C23.2448 3 23.1907 3 23.1327 3H5.85181C5.79385 3 5.73975 3 5.68179 3C4.95664 3.04146 4.27482 3.35889 3.77616 3.88719C3.27751 4.41548 2.9998 5.11461 3 5.8412V23.1512C3.00102 23.9065 3.3014 24.6305 3.83527 25.1646C4.36915 25.6987 5.09294 25.9991 5.84795 26.0002H23.152C23.9074 25.9981 24.6312 25.6968 25.165 25.1621C25.6987 24.6274 25.999 23.903 26 23.1474V5.84506C25.9986 5.25271 25.8122 4.6756 25.4667 4.19446ZM10.2648 17.4688H4.28293V11.4076H10.2648V17.4688ZM10.2648 10.1938H4.28293V5.84506C4.28293 5.42883 4.44822 5.02964 4.74245 4.73531C5.03667 4.44099 5.43572 4.27564 5.85181 4.27564H10.2648V10.1938ZM17.5412 24.7168H11.4704V18.7368H17.5412V24.7168ZM17.5412 10.1938H11.4704V4.27564H17.5412V10.1938ZM24.7171 23.1474C24.7161 23.5634 24.5508 23.9621 24.2572 24.2568C24.0358 24.4757 23.755 24.6249 23.4496 24.6859C23.3452 24.7061 23.2391 24.7165 23.1327 24.7168H18.7507V18.7368H24.7171V23.1474ZM24.7171 17.4688H18.7507V11.4076H24.7171V17.4688Z" fill="black"/>
</g>
</g>
<g clip-path="url(#clip2_1564_290296)">
<path d="M53.1479 4.28328H45.4194L54.7323 13.5961V5.86762C54.7343 5.65899 54.6948 5.45204 54.6159 5.25888C54.537 5.06573 54.4204 4.89025 54.2728 4.74272C54.1253 4.59519 53.9498 4.47856 53.7567 4.39967C53.5635 4.32078 53.3566 4.28121 53.1479 4.28328V4.28328Z" fill="#6493E6"/>
<path d="M54.7169 23.147V15.2871L45.2881 24.7159H53.148C53.3566 24.7197 53.5639 24.6829 53.7585 24.6077C54.0445 24.4858 54.288 24.2821 54.4585 24.0222C54.629 23.7623 54.7189 23.4578 54.7169 23.147V23.147Z" fill="#6493E6"/>
<path d="M34.2827 5.85013V13.6057L43.6071 4.28125H35.8516C35.4374 4.28724 35.0418 4.45446 34.7489 4.74739C34.4559 5.04032 34.2887 5.43591 34.2827 5.85013V5.85013Z" fill="#6493E6"/>
<path d="M34.2827 23.1488C34.2827 23.5649 34.448 23.964 34.7422 24.2582C35.0365 24.5524 35.4355 24.7177 35.8516 24.7177H43.7231L34.2827 15.2773V23.1488Z" fill="#6493E6"/>
<path d="M44.5033 5.20467L40.126 9.58203L44.5033 13.9594L48.8807 9.58203L44.5033 5.20467Z" fill="white"/>
<path d="M44.5038 14.9254L40.1265 19.3027L44.5038 23.6801L48.8812 19.3027L44.5038 14.9254Z" fill="white"/>
<path d="M53.1482 3H35.8518C35.0961 3 34.3714 3.29993 33.8366 3.83391C33.3019 4.36789 33.001 5.09227 33 5.84795V23.152C33.001 23.9071 33.3014 24.6309 33.8353 25.1647C34.3691 25.6986 35.0929 25.999 35.848 26H53.152C53.9074 25.998 54.6312 25.6967 55.165 25.1622C55.6987 24.6277 55.999 23.9036 56 23.1482V5.85181C55.999 5.09578 55.6982 4.371 55.1636 3.83641C54.629 3.30181 53.9042 3.00102 53.1482 3V3ZM44.5039 5.20262L48.8821 9.58081L44.5039 13.959L40.1257 9.58081L44.5039 5.20262ZM34.2829 5.85181C34.2889 5.43759 34.4561 5.042 34.7491 4.74907C35.042 4.45614 35.4376 4.28892 35.8518 4.28293H43.6074L34.2829 13.6074V5.85181ZM43.7233 24.7171H35.8518C35.4357 24.7171 35.0367 24.5518 34.7424 24.2576C34.4482 23.9633 34.2829 23.5643 34.2829 23.1482V15.2767L43.7233 24.7171ZM44.4961 23.6815L40.1295 19.3071L44.5039 14.9483L48.8821 19.3071L44.5039 23.6815H44.4961ZM54.7093 23.1482C54.712 23.4581 54.6233 23.762 54.4542 24.0218C54.2851 24.2816 54.0432 24.4858 53.7587 24.6089C53.5652 24.6894 53.3578 24.7314 53.1482 24.7325H45.2883L54.7171 15.3038L54.7093 23.1482ZM54.7093 13.5958L45.4042 4.28293H53.1327C53.5488 4.28293 53.9479 4.44822 54.2421 4.74245C54.5363 5.03667 54.7016 5.43572 54.7016 5.85181L54.7093 13.5958Z" fill="black"/>
<path d="M53.1479 4.2832C53.564 4.2832 53.9631 4.4485 54.2573 4.74272C54.5515 5.03694 54.7168 5.43599 54.7168 5.85209V13.5806V5.85209C54.7168 5.43599 54.5515 5.03694 54.2573 4.74272C53.9631 4.4485 53.564 4.2832 53.1479 4.2832V4.2832Z" fill="black"/>
<path d="M54.7171 23.147C54.7192 23.4578 54.6293 23.7623 54.4588 24.0222C54.2883 24.2821 54.0447 24.4858 53.7588 24.6077C54.0423 24.4868 54.2842 24.2855 54.4545 24.0286C54.6248 23.7718 54.7161 23.4706 54.7171 23.1624V15.2871V23.147Z" fill="black"/>
<path d="M43.6071 4.28125L34.2827 13.6057L43.6071 4.28125H35.8516C35.6051 4.28326 35.3626 4.34421 35.1444 4.45901C35.3626 4.34421 35.6051 4.28326 35.8516 4.28125H43.6071Z" fill="black"/>
<path d="M34.2827 15.2773L43.7231 24.7177L34.2827 15.2773Z" fill="black"/>
<path d="M44.5073 13.9595L48.8855 9.58132L44.5073 5.20312L48.8817 9.58132L44.5073 13.9595Z" fill="black"/>
</g>
<g clip-path="url(#clip3_1564_290296)">
<g clip-path="url(#clip4_1564_290296)">
<path d="M74.98 10.7909V7.50092C74.98 6.85022 74.7855 6.21414 74.4212 5.6731C74.0569 5.13207 73.539 4.71038 72.9332 4.46137C72.3273 4.21236 71.6606 4.14721 71.0175 4.27416C70.3743 4.4011 69.7835 4.71444 69.3198 5.17455C68.8561 5.63466 68.5403 6.22088 68.4123 6.85907C68.2844 7.49727 68.3501 8.15877 68.601 8.75994C68.852 9.3611 69.277 9.87493 69.8222 10.2364C70.3675 10.5979 71.0085 10.7909 71.6643 10.7909H74.98Z" fill="white"/>
<path d="M81.7337 9.85134C82.1221 9.46998 82.4095 8.99928 82.5704 8.48109C82.7312 7.96291 82.7605 7.41331 82.6556 6.88118C82.5508 6.34905 82.315 5.85089 81.9692 5.43101C81.6235 5.01114 81.1785 4.68256 80.6739 4.4745C80.1693 4.26645 79.6207 4.18537 79.0769 4.23848C78.533 4.29158 78.0109 4.47723 77.5568 4.77891C77.1028 5.08059 76.7309 5.48894 76.4743 5.96764C76.2177 6.44634 76.0843 6.98056 76.086 7.52276V10.8127H79.4016C79.835 10.8126 80.264 10.7276 80.6642 10.5626C81.0644 10.3976 81.4278 10.1559 81.7337 9.85134V9.85134Z" fill="white"/>
<path d="M66.0464 18.3373C66.0464 21.4116 67.9695 23.8425 70.7289 24.5517V12.291C68.0211 13.2232 66.0464 15.6578 66.0464 18.3373Z" fill="#F8CD0E"/>
<path d="M78.5727 24.782C79.5507 24.7003 80.5019 24.4226 81.3688 23.9659C82.2357 23.5091 83.0002 22.8827 83.6162 22.1245C82.9411 22.3004 82.2313 22.2982 81.5573 22.118C80.8833 21.9378 80.2684 21.5859 79.7737 21.0973L80.5474 20.3223C81.0884 20.857 81.819 21.1603 82.5827 21.1671C83.3463 21.174 84.0823 20.8838 84.633 20.3588C84.8777 19.7126 85.0026 19.0277 85.0014 18.3373C85.0239 17.4932 84.8741 16.6533 84.5609 15.8681C84.2478 15.0829 83.7779 14.3687 83.1794 13.7684C82.5809 13.168 81.8663 12.694 81.0784 12.3748C80.2905 12.0556 79.4457 11.8978 78.5948 11.9109H76.0859V24.782H78.5727ZM80.179 15.8077C80.4086 15.8077 80.6332 15.8753 80.8241 16.002C81.015 16.1287 81.1637 16.3088 81.2515 16.5194C81.3392 16.73 81.3619 16.9617 81.3169 17.1852C81.2718 17.4087 81.1609 17.6138 80.9982 17.7747C80.8356 17.9356 80.6284 18.045 80.4031 18.089C80.1777 18.133 79.9443 18.1097 79.7323 18.022C79.5203 17.9343 79.3393 17.7861 79.2123 17.5963C79.0852 17.4064 79.0177 17.1834 79.0185 16.9555C79.0185 16.8045 79.0485 16.6549 79.1069 16.5154C79.1652 16.3759 79.2508 16.2492 79.3586 16.1426C79.4664 16.036 79.5944 15.9515 79.7351 15.894C79.8759 15.8366 80.0267 15.8072 80.179 15.8077Z" fill="#F8CD0E"/>
<path d="M72.4755 11.9099C72.2604 11.9279 72.0464 11.9572 71.8345 11.9976V24.7518C72.0297 24.7701 72.2324 24.781 72.435 24.781H74.9807V11.9062H72.4755V11.9099Z" fill="#F8CD0E"/>
<path d="M80.179 18.1018C80.4086 18.1018 80.6329 18.0343 80.8238 17.9077C81.0146 17.7812 81.1634 17.6014 81.2512 17.391C81.339 17.1806 81.362 16.949 81.3172 16.7257C81.2725 16.5023 81.1619 16.2971 80.9996 16.1361C80.8373 15.9751 80.6306 15.8654 80.4054 15.821C80.1803 15.7765 79.947 15.7993 79.7349 15.8865C79.5229 15.9736 79.3416 16.1212 79.2141 16.3106C79.0866 16.4999 79.0186 16.7226 79.0186 16.9503C79.0186 17.2557 79.1408 17.5486 79.3585 17.7645C79.5761 17.9805 79.8713 18.1018 80.179 18.1018V18.1018Z" fill="black"/>
<path d="M81.5014 11.3759C81.8733 11.1752 82.2144 10.9228 82.5145 10.6265C82.9609 10.1821 83.306 9.64777 83.5265 9.05968C83.747 8.4716 83.8378 7.84341 83.7927 7.21754C83.7477 6.59167 83.5678 5.98267 83.2653 5.43165C82.9628 4.88064 82.5447 4.40043 82.0392 4.02344C81.5337 3.64645 80.9525 3.38146 80.335 3.24635C79.7175 3.11124 79.0779 3.10916 78.4595 3.24025C77.8411 3.37133 77.2582 3.63254 76.7502 4.00623C76.2422 4.37992 75.8209 4.85739 75.5148 5.40643C75.1809 4.79495 74.7053 4.271 74.1272 3.87781C73.5491 3.48461 72.885 3.23343 72.1899 3.14499C71.4947 3.05655 70.7882 3.13339 70.1289 3.36916C69.4695 3.60493 68.8761 3.99288 68.3975 4.50101C67.919 5.00913 67.5691 5.62287 67.3767 6.29159C67.1842 6.96031 67.1548 7.66485 67.2908 8.34708C67.4267 9.02932 67.7242 9.66969 68.1587 10.2154C68.5932 10.7611 69.1522 11.1964 69.7897 11.4856C67.1371 12.6188 65.1993 15.068 64.9709 17.795H62.8931V18.8917H64.9672C65.0703 20.7859 65.9042 22.5681 67.2959 23.8687C68.6877 25.1693 70.5304 25.8886 72.4422 25.8774H78.6389C82.7577 25.5557 86.1286 22.1744 86.1286 18.336C86.1467 16.8499 85.7156 15.3925 84.8908 14.1518C84.066 12.9112 82.8854 11.9443 81.5014 11.3759V11.3759ZM70.7291 24.5614C67.9697 23.8303 66.0466 21.4103 66.0466 18.347C66.0466 15.6675 68.0324 13.2293 70.7291 12.3008V24.5614ZM74.9806 24.7807H72.4422C72.2396 24.7807 72.037 24.7807 71.8417 24.7515V11.9974C72.0537 11.9569 72.2677 11.9276 72.4828 11.9096H74.9879L74.9806 24.7807ZM74.9806 10.8056H71.6649C70.7885 10.8039 69.9481 10.4598 69.3255 9.8479C68.937 9.46654 68.6496 8.99584 68.4888 8.47765C68.3279 7.95947 68.2986 7.40987 68.4035 6.87774C68.5084 6.34561 68.7442 5.84746 69.0899 5.42758C69.4357 5.0077 69.8806 4.67912 70.3853 4.47107C70.8899 4.26301 71.4385 4.18193 71.9823 4.23504C72.5261 4.28815 73.0483 4.4738 73.5023 4.77547C73.9564 5.07715 74.3283 5.4855 74.5849 5.9642C74.8415 6.44291 74.9749 6.97712 74.9732 7.51933L74.9806 10.8056ZM76.0858 7.51567C76.0858 6.86497 76.2803 6.22889 76.6446 5.68786C77.0089 5.14682 77.5268 4.72514 78.1326 4.47613C78.7385 4.22712 79.4052 4.16196 80.0483 4.28891C80.6915 4.41585 81.2823 4.72919 81.746 5.1893C82.2097 5.64942 82.5255 6.23563 82.6534 6.87383C82.7814 7.51202 82.7157 8.17353 82.4648 8.77469C82.2138 9.37586 81.7888 9.88968 81.2436 10.2512C80.6983 10.6127 80.0573 10.8056 79.4015 10.8056H76.0858V7.51567ZM80.5472 20.321L79.7736 21.096C80.2683 21.5846 80.8831 21.9365 81.5571 22.1167C82.2311 22.2969 82.9409 22.2991 83.6161 22.1232C82.9991 22.8794 82.2341 23.5037 81.3673 23.9586C80.5004 24.4134 79.5498 24.6894 78.5726 24.7698H76.0858V11.906H78.5947C79.4477 11.8898 80.2952 12.0455 81.086 12.3636C81.8767 12.6817 82.5942 13.1556 83.1951 13.7566C83.796 14.3577 84.2678 15.0734 84.5821 15.8605C84.8963 16.6476 85.0465 17.4897 85.0234 18.336C85.0245 19.0264 84.8997 19.7113 84.655 20.3576C84.1033 20.8892 83.3626 21.1835 82.5935 21.1766C81.8245 21.1698 81.0893 20.8623 80.5472 20.321V20.321Z" fill="black"/>
</g>
</g>
<path d="M106.571 21.0254C106.024 21.5656 105.287 21.8685 104.519 21.8685C103.751 21.8685 103.014 21.5656 102.468 21.0254L101.946 20.5038C101.133 20.8401 100.259 21.0044 99.3794 20.9865C99.7029 22.0985 100.38 23.0748 101.308 23.7675C102.237 24.4602 103.365 24.8315 104.524 24.8253C105.682 24.8191 106.807 24.4356 107.728 23.733C108.648 23.0303 109.315 22.0468 109.627 20.9314C108.769 20.9484 107.917 20.793 107.121 20.4746L106.571 21.0254Z" fill="#47A590"/>
<path d="M113.256 10.6747C112.619 10.0422 111.83 9.58279 110.965 9.33984C110.98 10.2185 110.818 11.0912 110.489 11.9059L111.036 12.4535C111.577 12.9994 111.88 13.7364 111.88 14.5044C111.88 15.2724 111.577 16.0093 111.036 16.5553L110.502 17.0899C110.811 17.8581 110.971 18.6786 110.972 19.5069C110.973 19.5295 110.973 19.5523 110.972 19.5749C111.866 19.3209 112.678 18.837 113.328 18.1715C113.977 17.5059 114.44 16.6819 114.672 15.7816C114.903 14.8812 114.894 13.9359 114.647 13.0399C114.399 12.1439 113.921 11.3284 113.26 10.6747H113.256Z" fill="#47A590"/>
<path d="M98.4881 17.0513L97.9891 16.5685C97.4488 16.0226 97.1458 15.2856 97.1458 14.5176C97.1458 13.7496 97.4488 13.0127 97.9891 12.4667L98.4979 11.9581C98.1707 11.1716 98.0033 10.328 98.0053 9.47624V9.4082C96.8916 9.72451 95.9115 10.3953 95.2136 11.3188C94.5158 12.2424 94.1382 13.3683 94.1382 14.5257C94.1382 15.6832 94.5158 16.8091 95.2136 17.7326C95.9115 18.6562 96.8916 19.327 98.0053 19.6433C98.0053 19.6012 98.0053 19.5623 98.0053 19.5202C98.0021 18.6734 98.1662 17.8344 98.4881 17.0513V17.0513Z" fill="#47A590"/>
<path d="M101.927 8.51939L102.462 7.9848C102.73 7.71462 103.05 7.50022 103.402 7.35393C103.754 7.20763 104.132 7.13232 104.513 7.13232C104.894 7.13232 105.272 7.20763 105.624 7.35393C105.976 7.50022 106.295 7.71462 106.564 7.9848L107.047 8.46755C107.856 8.13297 108.725 7.96757 109.601 7.98156C109.351 7.12331 108.888 6.34275 108.253 5.71358C107.595 5.05654 106.776 4.58321 105.878 4.34066C104.98 4.0981 104.034 4.09477 103.135 4.331C102.235 4.56722 101.413 5.03478 100.75 5.68716C100.088 6.33954 99.6072 7.15402 99.3569 8.0496H99.4639C100.308 8.04558 101.144 8.20512 101.927 8.51939V8.51939Z" fill="#47A590"/>
<path d="M99.1719 9.20308C99.1719 9.28732 99.1719 9.3748 99.1719 9.46228C99.1716 9.99709 99.2513 10.5289 99.4084 11.0401L101.029 9.42016C100.428 9.2386 99.7988 9.1651 99.1719 9.20308V9.20308Z" fill="white"/>
<path d="M108.029 19.561C108.605 19.7284 109.205 19.7985 109.805 19.7684C109.805 19.6809 109.805 19.5934 109.805 19.5059C109.805 18.9949 109.732 18.4864 109.588 17.9961L108.029 19.561Z" fill="white"/>
<path d="M109.811 9.14512C109.189 9.11444 108.566 9.1934 107.971 9.3784L109.591 10.9984C109.772 10.3983 109.847 9.77101 109.811 9.14512V9.14512Z" fill="white"/>
<path d="M99.1756 19.824C99.8013 19.8551 100.428 19.7761 101.026 19.5907L99.4057 17.9707C99.2549 18.4731 99.1785 18.9949 99.1788 19.5194C99.1659 19.6134 99.1691 19.7171 99.1756 19.824Z" fill="white"/>
<path d="M106.023 8.99924L106.003 8.97656V9.00896L106.023 8.99924Z" fill="#54E984"/>
<path d="M106.081 19.9504L106.049 19.9277L106.007 20.0282L106.081 19.9504Z" fill="#54E984"/>
<path d="M108.252 15.7458C107.959 15.4553 107.633 15.1998 107.28 14.9844C107.18 15.5524 106.909 16.0765 106.504 16.4872C106.099 16.898 105.578 17.1761 105.012 17.2848C105.228 17.6324 105.485 17.9533 105.777 18.2405C106.122 18.5808 106.512 18.8719 106.937 19.1056L107.491 18.5483L108.463 17.5764L109.111 16.9284C108.88 16.497 108.591 16.0992 108.252 15.7458V15.7458Z" fill="#54E984"/>
<path d="M108.868 11.8415L107.073 10.0466L106.872 9.8457C106.091 10.286 105.436 10.9197 104.97 11.686C105.545 11.784 106.076 12.0563 106.491 12.466C106.906 12.8758 107.185 13.4031 107.29 13.9767C108.049 13.5096 108.676 12.856 109.111 12.078L108.868 11.8415Z" fill="#54E984"/>
<path d="M103.206 10.735C102.876 10.4105 102.504 10.1306 102.101 9.90234L101.855 10.1518L99.9107 12.0958L99.8848 12.1217C100.321 12.8801 100.941 13.5171 101.687 13.975C101.791 13.4061 102.066 12.8823 102.475 12.4737C102.884 12.065 103.409 11.7908 103.978 11.6876C103.759 11.3412 103.5 11.0215 103.206 10.735V10.735Z" fill="#54E984"/>
<path d="M101.687 14.9844C100.928 15.4557 100.301 16.1124 99.8657 16.8927L99.9954 17.0223L101.907 18.9307L102.112 19.138C102.528 18.9025 102.911 18.6115 103.249 18.2729C103.537 17.979 103.791 17.6529 104.004 17.301C103.426 17.2012 102.893 16.9249 102.478 16.5101C102.063 16.0954 101.787 15.5624 101.687 14.9844V14.9844Z" fill="#54E984"/>
<path d="M104.513 8.2344C104.035 8.23536 103.577 8.42522 103.239 8.76251L102.951 9.05087C103.337 9.29728 103.696 9.58283 104.023 9.90298C104.179 10.0585 104.325 10.227 104.467 10.3922C104.604 10.2198 104.75 10.0554 104.905 9.89974C105.241 9.56342 105.612 9.26467 106.013 9.00875V8.97635L105.796 8.76251C105.628 8.59404 105.428 8.46062 105.207 8.36997C104.987 8.27932 104.751 8.23324 104.513 8.2344Z" fill="#B5DD35"/>
<path d="M104.51 18.5801C104.372 18.7508 104.226 18.9141 104.072 19.0693C103.736 19.4087 103.363 19.7096 102.96 19.9668L103.239 20.2487C103.578 20.5846 104.036 20.7731 104.513 20.7731C104.99 20.7731 105.448 20.5846 105.786 20.2487L106.007 20.0283L106.049 19.9279C105.653 19.6795 105.285 19.3895 104.95 19.0628C104.795 18.9097 104.648 18.7486 104.51 18.5801Z" fill="#B5DD35"/>
<path d="M109.973 16.0615L110.258 15.7763C110.594 15.4377 110.783 14.98 110.783 14.503C110.783 14.026 110.594 13.5683 110.258 13.2297L109.957 12.9316C109.588 13.5213 109.124 14.0457 108.583 14.4836C108.754 14.6219 108.917 14.7689 109.072 14.9242C109.415 15.2682 109.717 15.6497 109.973 16.0615V16.0615Z" fill="#B5DD35"/>
<path d="M99.0358 12.9648L98.7668 13.2305C98.4307 13.5691 98.2422 14.0268 98.2422 14.5038C98.2422 14.9808 98.4307 15.4385 98.7668 15.7771L99.0228 16.0299C99.2756 15.6306 99.5711 15.2602 99.9043 14.925C100.06 14.7698 100.223 14.6227 100.394 14.4844C100.223 14.3461 100.06 14.199 99.9043 14.0438C99.5783 13.7151 99.2872 13.3535 99.0358 12.9648V12.9648Z" fill="#B5DD35"/>
<path d="M106.246 14.4839C106.246 14.136 106.143 13.7958 105.95 13.5065C105.757 13.2172 105.482 12.9917 105.16 12.8585C104.839 12.7254 104.485 12.6905 104.143 12.7584C103.802 12.8263 103.489 12.9939 103.242 13.2399C102.996 13.4859 102.829 13.7994 102.761 14.1407C102.693 14.482 102.728 14.8357 102.861 15.1572C102.994 15.4786 103.22 15.7534 103.509 15.9467C103.798 16.14 104.139 16.2432 104.487 16.2432C104.953 16.2432 105.401 16.0579 105.731 15.7279C106.061 15.398 106.246 14.9505 106.246 14.4839Z" fill="white"/>
<path d="M114.069 9.85128C113.182 8.96812 112.056 8.36435 110.829 8.11465C110.515 6.66146 109.712 5.36015 108.553 4.42894C107.394 3.49772 105.95 2.99323 104.463 3.00007C102.976 3.00691 101.537 3.52465 100.386 4.46648C99.2361 5.40832 98.4445 6.71696 98.1446 8.17297C96.6898 8.47956 95.3846 9.27692 94.4479 10.4314C93.5112 11.5858 93 13.0271 93 14.5136C93 16.0001 93.5112 17.4414 94.4479 18.5958C95.3846 19.7503 96.6898 20.5476 98.1446 20.8542C98.4519 22.3143 99.2537 23.6236 100.415 24.5611C101.576 25.4986 103.025 26.0068 104.517 25.9999C106.009 25.9931 107.454 25.4716 108.606 24.5235C109.758 23.5753 110.548 22.2587 110.842 20.7959C111.988 20.5569 113.048 20.0119 113.909 19.2189C114.771 18.4258 115.401 17.4143 115.733 16.2918C116.066 15.1693 116.088 13.9777 115.797 12.8437C115.506 11.7097 114.914 10.6756 114.082 9.85128H114.069ZM109.578 10.995L107.957 9.375C108.557 9.18958 109.185 9.1117 109.811 9.14496C109.842 9.77054 109.763 10.3967 109.578 10.995ZM101.907 18.9135L99.9951 17.0051L99.8655 16.8755C100.303 16.1012 100.93 15.4502 101.687 14.9834C101.789 15.5591 102.066 16.0892 102.481 16.5014C102.896 16.9137 103.427 17.188 104.004 17.287C103.79 17.6389 103.537 17.9651 103.249 18.259C102.911 18.5976 102.528 18.8886 102.111 19.1241L101.907 18.9135ZM104.467 10.3924C104.325 10.2206 104.179 10.0684 104.023 9.90312C103.696 9.58296 103.337 9.29742 102.951 9.051L103.239 8.76264C103.406 8.59513 103.605 8.46222 103.823 8.37153C104.042 8.28085 104.276 8.23417 104.513 8.23417C104.749 8.23417 104.984 8.28085 105.202 8.37153C105.421 8.46222 105.619 8.59513 105.786 8.76264L106.003 8.97648L106.023 8.99916C105.622 9.25508 105.25 9.55384 104.914 9.89016C104.756 10.0486 104.606 10.2163 104.467 10.3924V10.3924ZM106.246 14.4844C106.247 14.8325 106.144 15.173 105.951 15.4627C105.758 15.7525 105.484 15.9785 105.162 16.1121C104.841 16.2458 104.487 16.2811 104.145 16.2136C103.804 16.1461 103.49 15.9788 103.244 15.7328C102.997 15.4869 102.829 15.1735 102.761 14.8321C102.693 14.4907 102.728 14.1368 102.861 13.8152C102.994 13.4935 103.219 13.2186 103.509 13.0251C103.798 12.8316 104.139 12.7284 104.487 12.7284C104.953 12.7284 105.4 12.9133 105.73 13.2425C106.06 13.5717 106.246 14.0184 106.246 14.4844V14.4844ZM103.207 10.7358C103.5 11.0285 103.758 11.3548 103.975 11.7078C103.409 11.8103 102.887 12.0819 102.479 12.4868C102.07 12.8917 101.794 13.4108 101.687 13.9758C100.938 13.5147 100.317 12.873 99.8817 12.1095L99.9076 12.0836L101.852 10.1396L102.098 9.89016C102.503 10.1222 102.876 10.4065 103.207 10.7358ZM104.072 19.0755C104.226 18.9202 104.372 18.7569 104.509 18.5862C104.648 18.7525 104.795 18.9115 104.95 19.0625C105.283 19.389 105.651 19.679 106.045 19.9276L106.078 19.9503L106.003 20.028L105.783 20.2483C105.444 20.5843 104.986 20.7728 104.509 20.7728C104.032 20.7728 103.574 20.5843 103.236 20.2483L102.957 19.9665C103.361 19.7095 103.735 19.4085 104.072 19.069V19.0755ZM105.77 18.246C105.478 17.9588 105.221 17.6379 105.005 17.2903C105.572 17.1816 106.092 16.9035 106.497 16.4927C106.902 16.082 107.173 15.5579 107.274 14.9899C108.044 15.456 108.683 16.1105 109.131 16.8917L108.482 17.5397L107.51 18.5117L106.956 19.069C106.525 18.8483 106.125 18.5692 105.77 18.2396V18.246ZM107.29 13.9758C107.186 13.4004 106.908 12.8709 106.493 12.4593C106.078 12.0477 105.546 11.774 104.97 11.6754C105.435 10.9091 106.091 10.2754 106.872 9.83508L107.073 10.036L108.868 11.8309L109.111 12.0771C108.676 12.8551 108.049 13.5087 107.29 13.9758V13.9758ZM100.737 5.70087C101.736 4.70311 103.09 4.14261 104.501 4.14261C105.913 4.14261 107.267 4.70311 108.265 5.70087C108.9 6.33005 109.364 7.11061 109.613 7.96885C108.733 7.95719 107.859 8.12704 107.047 8.46781L106.57 7.98505C106.302 7.71487 105.982 7.50048 105.63 7.35418C105.278 7.20789 104.9 7.13258 104.519 7.13258C104.138 7.13258 103.76 7.20789 103.408 7.35418C103.056 7.50048 102.737 7.71487 102.468 7.98505L101.933 8.51965C101.151 8.20094 100.315 8.03699 99.4701 8.03689H99.3631C99.6101 7.15198 100.084 6.3468 100.737 5.70087V5.70087ZM99.1719 9.20328C99.7952 9.16999 100.419 9.24676 101.016 9.43008L99.3956 11.0501C99.2384 10.5388 99.1587 10.007 99.159 9.4722C99.1655 9.375 99.1687 9.28752 99.1719 9.20328ZM98.0053 19.5064C98.0053 19.5485 98.0053 19.5874 98.0053 19.6295C96.8916 19.3132 95.9115 18.6424 95.2136 17.7189C94.5158 16.7953 94.1382 15.6694 94.1382 14.512C94.1382 13.3545 94.5158 12.2286 95.2136 11.3051C95.9115 10.3815 96.8916 9.71074 98.0053 9.39444V9.46248C98.0033 10.3142 98.1708 11.1578 98.4979 11.9443L97.9891 12.453C97.4488 12.9989 97.1458 13.7359 97.1458 14.5039C97.1458 15.2719 97.4488 16.0088 97.9891 16.5548L98.4882 17.0505C98.1679 17.8296 98.0038 18.664 98.0053 19.5064V19.5064ZM98.7669 15.7772C98.4308 15.4386 98.2423 14.9809 98.2423 14.5039C98.2423 14.0269 98.4308 13.5692 98.7669 13.2306L99.0358 12.9649C99.2873 13.3535 99.5784 13.7151 99.9043 14.0438C100.06 14.1991 100.223 14.3462 100.394 14.4844C100.223 14.6227 100.06 14.7698 99.9043 14.9251C99.5712 15.2602 99.2757 15.6307 99.0229 16.0299L98.7669 15.7772ZM99.1655 19.5064C99.1651 18.9819 99.2416 18.4601 99.3923 17.9577L101.013 19.5777C100.414 19.7631 99.7879 19.842 99.1622 19.811C99.1687 19.717 99.1655 19.6133 99.1655 19.5064V19.5064ZM108.239 23.268C107.586 23.9216 106.773 24.3939 105.881 24.6383C104.989 24.8827 104.049 24.8909 103.154 24.6621C102.258 24.4333 101.437 23.9754 100.772 23.3333C100.107 22.6912 99.6201 21.8871 99.3599 21C100.24 21.0179 101.113 20.8536 101.927 20.5173L102.448 21.0389C102.994 21.5791 103.732 21.882 104.5 21.882C105.268 21.882 106.005 21.5791 106.551 21.0389L107.102 20.4881C107.898 20.8065 108.75 20.9619 109.607 20.9449C109.362 21.8227 108.896 22.6227 108.252 23.268H108.239ZM109.811 19.7688C109.212 19.799 108.612 19.7289 108.035 19.5615L109.601 17.9966C109.742 18.4872 109.813 18.9956 109.811 19.5064C109.811 19.5939 109.811 19.6814 109.811 19.7688ZM109.98 16.0623C109.723 15.6505 109.421 15.269 109.079 14.9251C108.923 14.7698 108.76 14.6227 108.589 14.4844C109.13 14.0466 109.594 13.5222 109.963 12.9325L110.265 13.2306C110.601 13.5692 110.789 14.0269 110.789 14.5039C110.789 14.9809 110.601 15.4386 110.265 15.7772L109.98 16.0623ZM113.298 18.1877C112.654 18.841 111.851 19.3156 110.968 19.5647C110.97 19.5421 110.97 19.5193 110.968 19.4967C110.967 18.6684 110.808 17.8479 110.498 17.0797L111.036 16.5677C111.576 16.0218 111.879 15.2848 111.879 14.5168C111.879 13.7488 111.576 13.0119 111.036 12.4659L110.488 11.9184C110.818 11.1037 110.98 10.231 110.965 9.35232C111.85 9.60655 112.655 10.0863 113.299 10.7445C113.943 11.4028 114.406 12.217 114.641 13.1076C114.876 13.9981 114.876 14.9345 114.641 15.825C114.405 16.7155 113.943 17.5296 113.298 18.1877V18.1877Z" fill="black"/>
<path d="M145.318 3.41992H123.354V25.3843H145.318V3.41992Z" fill="white"/>
<path d="M127.885 11.3969V10.4383H128.455V7.30436H127.885V6.5844L128.409 6.3457H129.803V10.4383H130.357V11.3969H127.885Z" fill="black"/>
<path d="M127.269 19.012C127.282 18.7808 127.34 18.5544 127.441 18.3458C127.541 18.1372 127.682 17.9504 127.854 17.7963C128.027 17.6421 128.229 17.5236 128.447 17.4475C128.666 17.3713 128.898 17.3391 129.129 17.3526C130.241 17.3526 130.857 18.0379 130.857 18.9542C130.857 20.3287 128.952 20.6328 128.67 21.5376H129.899V21.0063H130.911V22.4962H127.238V21.6184C127.874 19.9129 129.645 19.7242 129.645 18.9542C129.646 18.8795 129.632 18.8054 129.602 18.7367C129.573 18.668 129.529 18.6063 129.474 18.5557C129.419 18.5051 129.354 18.4667 129.283 18.4432C129.213 18.4196 129.137 18.4114 129.063 18.4191C128.97 18.423 128.878 18.4454 128.793 18.485C128.709 18.5245 128.633 18.5804 128.57 18.6495C128.507 18.7186 128.458 18.7994 128.426 18.8874C128.395 18.9754 128.381 19.0688 128.386 19.1621L127.269 19.012Z" fill="black"/>
<path d="M138.191 21.3295L139.346 20.9753C139.404 21.3141 139.577 21.5682 139.951 21.5682C140.029 21.5735 140.108 21.5618 140.182 21.5337C140.255 21.5055 140.322 21.4618 140.377 21.4054C140.432 21.3489 140.474 21.2813 140.5 21.207C140.526 21.1327 140.536 21.0537 140.528 20.9753C140.528 20.5287 140.209 20.3054 139.693 20.3054H139.512V19.5238H139.701C140.232 19.5238 140.471 19.2851 140.471 18.8963C140.475 18.8258 140.465 18.7552 140.44 18.6892C140.415 18.6231 140.376 18.5632 140.326 18.5132C140.276 18.4633 140.216 18.4246 140.15 18.3997C140.084 18.3748 140.014 18.3643 139.943 18.3688C139.639 18.3688 139.439 18.5844 139.381 18.9656L138.292 18.6537C138.373 18.2695 138.592 17.9278 138.906 17.6921C139.22 17.4564 139.609 17.3426 140.001 17.3716C141.11 17.3716 141.68 17.9646 141.68 18.8578C141.691 19.0938 141.621 19.3267 141.481 19.5168C141.34 19.707 141.139 19.8428 140.91 19.9011C141.17 19.954 141.403 20.1008 141.562 20.3138C141.722 20.5267 141.798 20.7909 141.776 21.0561C141.776 21.9647 141.133 22.6192 139.932 22.6192C138.958 22.6038 138.369 22.1149 138.191 21.3295Z" fill="black"/>
<path d="M145.626 3.46484H134.238V14.499H145.626V3.46484Z" fill="#FB9B00"/>
<path d="M123 3V26H146V3H123ZM144.914 13.961H135.039V4.078H144.914V13.961ZM133.961 4.078V13.961H124.078V4.078H133.961ZM124.078 15.039H133.961V24.9143H124.078V15.039ZM135.039 24.9143V15.039H144.914V24.9143H135.039Z" fill="black"/>
<path d="M168.718 10.8125H168.713V10.8169H168.718V10.8125Z" fill="#7FA768"/>
<path d="M168.713 11.4004V25.1068H173.687C174.433 25.1068 175.041 24.5073 175.041 23.7686V18.2265V11.4313L168.713 11.4004Z" fill="#6AAA64"/>
<path d="M174.82 5.44003V10.2667L168.721 10.2396L168.748 4.13281H173.513C174.232 4.13281 174.82 4.72067 174.82 5.44003Z" fill="white"/>
<path d="M167.901 18.4118V25.0987H161.276V18.3809L167.901 18.4118Z" fill="#6AAA64"/>
<path d="M167.994 10.9704L167.959 17.9049L161.033 17.8662L161.064 10.9434L167.994 10.9704Z" fill="#D1B036"/>
<path d="M167.588 4.13281L167.561 10.2319L161.455 10.2086V4.13281H167.588Z" fill="white"/>
<path d="M160.789 18.3457V25.1332H155.444C154.647 25.1332 153.998 24.4834 153.998 23.6867V18.3457H160.789Z" fill="#6AAA64"/>
<path d="M160.29 11.4004L160.259 17.4994H154.141V11.4004H160.29Z" fill="white"/>
<path d="M160.294 4.13281V10.2396H154.141V5.44003C154.141 4.72067 154.729 4.13281 155.452 4.13281H160.294V4.13281Z" fill="white"/>
<path d="M173.533 3H155.471C154.11 3 153 4.1061 153 5.46746V23.5287C153 24.89 154.11 26 155.471 26H173.533C174.894 26 176 24.89 176 23.5287V5.46746C176 4.10997 174.894 3 173.533 3ZM168.733 10.8433H168.737V10.8471H168.733V10.8433ZM154.164 11.4311H160.313L160.282 17.5302H154.164V11.4311ZM160.313 24.8436H155.471C154.748 24.8436 154.16 24.2558 154.16 23.5325V18.6866H160.313V24.8436ZM160.313 10.2709H154.164V5.46746C154.164 4.74811 154.752 4.16025 155.475 4.16025H160.317V10.2709H160.313ZM167.573 24.8436H161.474V18.6595L167.573 18.6904V24.8436ZM167.542 17.5263L161.443 17.4954L161.47 11.3963L167.573 11.4195L167.542 17.5263ZM167.58 10.2632L161.474 10.24V4.16025H167.608L167.58 10.2632ZM174.84 23.5325C174.84 24.2558 174.252 24.8436 173.533 24.8436H168.733V18.6866H174.84V23.5325ZM174.84 17.5263H168.706L168.733 11.4273L174.84 11.4543V17.5263ZM174.84 10.298L168.741 10.2709L168.768 4.16412H173.533C174.252 4.16412 174.84 4.75198 174.84 5.47133V10.298Z" fill="black"/>
<path d="M184.957 4.27539V8.05601L190.065 4.27539H184.957Z" fill="white"/>
<path d="M190.065 4.27539L184.957 8.05601V18.9578L191.097 4.27539H190.065Z" fill="#FF3833"/>
<path d="M204.549 23.8681V12.8438L194.899 23.8681H204.549Z" fill="#FF3833"/>
<path d="M204.549 12.3814V4.27539H200.581L196.905 15.3647L204.549 12.3814Z" fill="#E87E7E"/>
<path d="M184.957 20.8269V23.868H194.088L196.905 15.3652L184.957 20.8269Z" fill="#E87E7E"/>
<path d="M196.905 15.3642L194.087 23.867H194.899L204.549 12.8426V12.3809L196.905 15.3642Z" fill="white"/>
<path d="M200.581 4.27539H191.097L184.957 18.9577V20.8264L196.905 15.3647L200.581 4.27539Z" fill="#E20736"/>
<path d="M205.765 12.2552C205.677 12.1705 205.569 12.1095 205.451 12.078C205.333 12.0464 205.209 12.0453 205.09 12.0748V3.73437H201.317C201.333 3.6015 201.299 3.46744 201.222 3.35807C201.145 3.2487 201.03 3.17179 200.899 3.14219C200.769 3.1126 200.632 3.13241 200.515 3.1978C200.398 3.26319 200.31 3.36953 200.267 3.49628L200.188 3.73437H191.851C191.851 3.62748 191.827 3.52187 191.782 3.42516C191.736 3.32846 191.67 3.24309 191.587 3.17521C191.461 3.06601 191.3 3.00415 191.133 3.0002C190.966 2.99625 190.803 3.05046 190.671 3.15357L189.888 3.73437H184.416V7.78555L183.301 8.61165C183.23 8.6468 183.168 8.69711 183.118 8.75903C183.069 8.82095 183.034 8.89296 183.015 8.96999C182.996 9.04701 182.995 9.12717 183.011 9.20479C183.027 9.28241 183.059 9.35561 183.107 9.41921C183.154 9.48282 183.215 9.53527 183.284 9.57288C183.354 9.61048 183.431 9.63231 183.51 9.63684C183.589 9.64136 183.668 9.62846 183.742 9.59904C183.816 9.56963 183.882 9.52443 183.936 9.46662L184.409 9.10588V18.846L183.687 20.5668C183.626 20.683 183.597 20.8138 183.605 20.945C183.612 21.0761 183.656 21.2028 183.73 21.3112C183.804 21.4196 183.907 21.5057 184.026 21.5601C184.146 21.6146 184.278 21.6353 184.409 21.6202V24.4087H193.337L193.315 24.4737V24.5638C193.312 24.7337 193.369 24.8991 193.476 25.0311C193.583 25.1631 193.733 25.2531 193.9 25.2853C194.043 25.3176 194.192 25.3055 194.328 25.2508C194.464 25.196 194.58 25.1011 194.661 24.9787L195.188 24.4268H205.09V14.0012L205.887 13.1643L205.941 13.0741C206.001 12.9362 206.016 12.7831 205.984 12.6364C205.952 12.4896 205.876 12.3563 205.765 12.2552ZM204.008 12.4969L197.55 15.1303L200.97 4.81661H204.008V12.4969ZM203.856 13.727L194.895 23.1461L197.103 16.4831L203.856 13.727ZM196.234 15.6678L185.498 20.0473V19.0661L191.458 4.81661H199.83L196.234 15.6678ZM185.498 4.81661H188.427L185.498 6.98108V4.81661ZM185.498 8.33027L190.242 4.81661H190.285L185.498 16.2595V8.33027ZM185.498 23.3265V21.2161L195.786 17.0206L193.694 23.3265H185.498ZM204.008 23.3265H196.219L204.008 15.1375V23.3265Z" fill="black"/>
<g clip-path="url(#clip5_1564_290296)">
<path d="M233.113 3.01562H215.887C214.302 3.01562 213.016 4.30187 213.016 5.88671V23.1132C213.016 24.6981 214.302 25.9843 215.887 25.9843H233.113C234.698 25.9843 235.984 24.6981 235.984 23.1132V5.88671C235.984 4.30187 234.698 3.01562 233.113 3.01562ZM225.074 4.16406H229.381V8.47069H225.074V4.16406ZM214.164 5.88671C214.164 4.93769 214.938 4.16406 215.887 4.16406H223.926V8.47069H214.164V5.88671ZM214.164 9.61912H229.381V13.9257H214.164V9.61912ZM223.926 15.0742V19.3808H219.619V15.0742H223.926ZM218.471 24.8359H215.887C214.938 24.8359 214.164 24.0622 214.164 23.1132V20.5292H218.471V24.8359ZM218.471 19.3808H214.164V15.0742H218.471V19.3808ZM234.836 23.1132C234.836 24.0622 234.062 24.8359 233.113 24.8359H219.619V20.5292H234.836V23.1132ZM234.836 19.3808H225.074V15.0742H234.836V19.3808ZM234.836 13.9257H230.529V9.61912H234.836V13.9257ZM234.836 8.47069H230.529V4.16406H233.113C234.062 4.16406 234.836 4.93769 234.836 5.88671V8.47069Z" fill="black"/>
<path d="M218.471 20.5293V24.8359H215.887C214.938 24.8359 214.164 24.0623 214.164 23.1133V20.5293H218.471Z" fill="white"/>
<path d="M223.926 15.0742H219.619V19.3808H223.926V15.0742Z" fill="white"/>
<path d="M234.836 9.61914H230.529V13.9258H234.836V9.61914Z" fill="white"/>
<path d="M229.381 4.16406H225.074V8.47069H229.381V4.16406Z" fill="white"/>
<path d="M234.836 5.88671V8.47069H230.529V4.16406H233.113C234.062 4.16406 234.836 4.93769 234.836 5.88671Z" fill="#BC70C4"/>
<path d="M218.471 15.0742H214.164V19.3808H218.471V15.0742Z" fill="#BC70C4"/>
<path d="M234.836 20.5293V23.1133C234.836 24.0623 234.062 24.8359 233.113 24.8359H219.619V20.5293H234.836Z" fill="#BC70C4"/>
<path d="M234.836 15.0742H225.074V19.3808H234.836V15.0742Z" fill="#BC70C4"/>
<path d="M229.381 9.61914H214.164V13.9258H229.381V9.61914Z" fill="#BC70C4"/>
<path d="M223.926 4.16406V8.47069H214.164V5.88671C214.164 4.93769 214.938 4.16406 215.887 4.16406H223.926Z" fill="#BC70C4"/>
</g>
<defs>
<clipPath id="clip0_1564_290296">
<rect width="23" height="23" fill="white" transform="translate(3 3)"/>
</clipPath>
<clipPath id="clip1_1564_290296">
<rect width="23" height="23.0002" fill="white" transform="translate(3 3)"/>
</clipPath>
<clipPath id="clip2_1564_290296">
<rect width="23" height="23" fill="white" transform="translate(33 3)"/>
</clipPath>
<clipPath id="clip3_1564_290296">
<rect x="62.6406" y="3" width="23.7188" height="23" rx="8" fill="white"/>
</clipPath>
<clipPath id="clip4_1564_290296">
<rect width="23.7188" height="23" fill="white" transform="translate(62.6406 3)"/>
</clipPath>
<clipPath id="clip5_1564_290296">
<rect width="23" height="23" fill="white" transform="translate(213 3)"/>
</clipPath>
</defs>
</svg>
