<?xml version="1.0" encoding="UTF-8" standalone="no" ?>
<!DOCTYPE svg PUBLIC "-//W3C//DTD SVG 1.1//EN" "http://www.w3.org/Graphics/SVG/1.1/DTD/svg11.dtd">
<svg xmlns="http://www.w3.org/2000/svg" xmlns:xlink="http://www.w3.org/1999/xlink" version="1.1" width="1080" height="1080" viewBox="0 0 1080 1080" xml:space="preserve">
<desc>Created with Fabric.js 5.2.4</desc>
<defs>
</defs>
<rect x="0" y="0" width="100%" height="100%" fill="transparent"></rect>
<g transform="matrix(1 0 0 1 540 540)" id="79e2dda8-629d-4331-acb6-f35aeb1a0cb1"  >
</g>
<g transform="matrix(1 0 0 1 540 540)" id="0cb21966-0ab0-402b-b842-8e43426a2449"  >
<rect style="stroke: none; stroke-width: 1; stroke-dasharray: none; stroke-linecap: butt; stroke-dashoffset: 0; stroke-linejoin: miter; stroke-miterlimit: 4; fill: rgb(255,255,255); fill-rule: nonzero; opacity: 1; visibility: hidden;" vector-effect="non-scaling-stroke"  x="-540" y="-540" rx="0" ry="0" width="1080" height="1080" />
</g>
<g transform="matrix(47.02 0 0 47.02 540 540)"  >
<g style=""   >
		<g transform="matrix(1 0 0 1 0 0)" clip-path="url(#CLIPPATH_15)"  >
<clipPath id="CLIPPATH_15" >
	<rect transform="matrix(1 0 0 1 0 0)" id="clip5_1564_290296" x="-11.5" y="-11.5" rx="0" ry="0" width="23" height="23" />
</clipPath>
<path style="stroke: none; stroke-width: 1; stroke-dasharray: none; stroke-linecap: butt; stroke-dashoffset: 0; stroke-linejoin: miter; stroke-miterlimit: 4; fill: rgb(0,0,0); fill-rule: nonzero; opacity: 1;" vector-effect="non-scaling-stroke"  transform=" translate(-224.5, -14.5)" d="M 233.113 3.01562 L 215.887 3.01562 C 214.302 3.01562 213.016 4.30187 213.016 5.88671 L 213.016 23.1132 C 213.016 24.6981 214.302 25.9843 215.887 25.9843 L 233.113 25.9843 C 234.698 25.9843 235.984 24.6981 235.984 23.1132 L 235.984 5.88671 C 235.984 4.30187 234.698 3.01562 233.113 3.01562 Z M 225.074 4.16406 L 229.381 4.16406 L 229.381 8.47069 L 225.074 8.47069 L 225.074 4.16406 Z M 214.164 5.88671 C 214.164 4.93769 214.938 4.16406 215.887 4.16406 L 223.926 4.16406 L 223.926 8.47069 L 214.164 8.47069 L 214.164 5.88671 Z M 214.164 9.61912 L 229.381 9.61912 L 229.381 13.9257 L 214.164 13.9257 L 214.164 9.61912 Z M 223.926 15.0742 L 223.926 19.3808 L 219.619 19.3808 L 219.619 15.0742 L 223.926 15.0742 Z M 218.471 24.8359 L 215.887 24.8359 C 214.938 24.8359 214.164 24.0622 214.164 23.1132 L 214.164 20.5292 L 218.471 20.5292 L 218.471 24.8359 Z M 218.471 19.3808 L 214.164 19.3808 L 214.164 15.0742 L 218.471 15.0742 L 218.471 19.3808 Z M 234.836 23.1132 C 234.836 24.0622 234.062 24.8359 233.113 24.8359 L 219.619 24.8359 L 219.619 20.5292 L 234.836 20.5292 L 234.836 23.1132 Z M 234.836 19.3808 L 225.074 19.3808 L 225.074 15.0742 L 234.836 15.0742 L 234.836 19.3808 Z M 234.836 13.9257 L 230.529 13.9257 L 230.529 9.61912 L 234.836 9.61912 L 234.836 13.9257 Z M 234.836 8.47069 L 230.529 8.47069 L 230.529 4.16406 L 233.113 4.16406 C 234.062 4.16406 234.836 4.93769 234.836 5.88671 L 234.836 8.47069 Z" stroke-linecap="round" />
</g>
		<g transform="matrix(1 0 0 1 -8.18 8.18)" clip-path="url(#CLIPPATH_16)"  >
<clipPath id="CLIPPATH_16" >
	<rect transform="matrix(1 0 0 1 8.18 -8.18)" id="clip5_1564_290296" x="-11.5" y="-11.5" rx="0" ry="0" width="23" height="23" />
</clipPath>
<path style="stroke: none; stroke-width: 1; stroke-dasharray: none; stroke-linecap: butt; stroke-dashoffset: 0; stroke-linejoin: miter; stroke-miterlimit: 4; fill: rgb(255,255,255); fill-rule: nonzero; opacity: 1;" vector-effect="non-scaling-stroke"  transform=" translate(-216.32, -22.68)" d="M 218.471 20.5293 L 218.471 24.8359 L 215.887 24.8359 C 214.938 24.8359 214.164 24.0623 214.164 23.1133 L 214.164 20.5293 L 218.471 20.5293 Z" stroke-linecap="round" />
</g>
		<g transform="matrix(1 0 0 1 -2.73 2.73)" clip-path="url(#CLIPPATH_17)"  >
<clipPath id="CLIPPATH_17" >
	<rect transform="matrix(1 0 0 1 2.73 -2.73)" id="clip5_1564_290296" x="-11.5" y="-11.5" rx="0" ry="0" width="23" height="23" />
</clipPath>
<path style="stroke: none; stroke-width: 1; stroke-dasharray: none; stroke-linecap: butt; stroke-dashoffset: 0; stroke-linejoin: miter; stroke-miterlimit: 4; fill: rgb(255,255,255); fill-rule: nonzero; opacity: 1;" vector-effect="non-scaling-stroke"  transform=" translate(-221.77, -17.23)" d="M 223.926 15.0742 L 219.619 15.0742 L 219.619 19.3808 L 223.926 19.3808 L 223.926 15.0742 Z" stroke-linecap="round" />
</g>
		<g transform="matrix(1 0 0 1 8.18 -2.73)" clip-path="url(#CLIPPATH_18)"  >
<clipPath id="CLIPPATH_18" >
	<rect transform="matrix(1 0 0 1 -8.18 2.73)" id="clip5_1564_290296" x="-11.5" y="-11.5" rx="0" ry="0" width="23" height="23" />
</clipPath>
<path style="stroke: none; stroke-width: 1; stroke-dasharray: none; stroke-linecap: butt; stroke-dashoffset: 0; stroke-linejoin: miter; stroke-miterlimit: 4; fill: rgb(255,255,255); fill-rule: nonzero; opacity: 1;" vector-effect="non-scaling-stroke"  transform=" translate(-232.68, -11.77)" d="M 234.836 9.61914 L 230.529 9.61914 L 230.529 13.9258 L 234.836 13.9258 L 234.836 9.61914 Z" stroke-linecap="round" />
</g>
		<g transform="matrix(1 0 0 1 2.73 -8.18)" clip-path="url(#CLIPPATH_19)"  >
<clipPath id="CLIPPATH_19" >
	<rect transform="matrix(1 0 0 1 -2.73 8.18)" id="clip5_1564_290296" x="-11.5" y="-11.5" rx="0" ry="0" width="23" height="23" />
</clipPath>
<path style="stroke: none; stroke-width: 1; stroke-dasharray: none; stroke-linecap: butt; stroke-dashoffset: 0; stroke-linejoin: miter; stroke-miterlimit: 4; fill: rgb(255,255,255); fill-rule: nonzero; opacity: 1;" vector-effect="non-scaling-stroke"  transform=" translate(-227.23, -6.32)" d="M 229.381 4.16406 L 225.074 4.16406 L 225.074 8.47069 L 229.381 8.47069 L 229.381 4.16406 Z" stroke-linecap="round" />
</g>
		<g transform="matrix(1 0 0 1 8.18 -8.18)" clip-path="url(#CLIPPATH_20)"  >
<clipPath id="CLIPPATH_20" >
	<rect transform="matrix(1 0 0 1 -8.18 8.18)" id="clip5_1564_290296" x="-11.5" y="-11.5" rx="0" ry="0" width="23" height="23" />
</clipPath>
<path style="stroke: none; stroke-width: 1; stroke-dasharray: none; stroke-linecap: butt; stroke-dashoffset: 0; stroke-linejoin: miter; stroke-miterlimit: 4; fill: rgb(188,112,196); fill-rule: nonzero; opacity: 1;" vector-effect="non-scaling-stroke"  transform=" translate(-232.68, -6.32)" d="M 234.836 5.88671 L 234.836 8.47069 L 230.529 8.47069 L 230.529 4.16406 L 233.113 4.16406 C 234.062 4.16406 234.836 4.93769 234.836 5.88671 Z" stroke-linecap="round" />
</g>
		<g transform="matrix(1 0 0 1 -8.18 2.73)" clip-path="url(#CLIPPATH_21)"  >
<clipPath id="CLIPPATH_21" >
	<rect transform="matrix(1 0 0 1 8.18 -2.73)" id="clip5_1564_290296" x="-11.5" y="-11.5" rx="0" ry="0" width="23" height="23" />
</clipPath>
<path style="stroke: none; stroke-width: 1; stroke-dasharray: none; stroke-linecap: butt; stroke-dashoffset: 0; stroke-linejoin: miter; stroke-miterlimit: 4; fill: rgb(188,112,196); fill-rule: nonzero; opacity: 1;" vector-effect="non-scaling-stroke"  transform=" translate(-216.32, -17.23)" d="M 218.471 15.0742 L 214.164 15.0742 L 214.164 19.3808 L 218.471 19.3808 L 218.471 15.0742 Z" stroke-linecap="round" />
</g>
		<g transform="matrix(1 0 0 1 2.73 8.18)" clip-path="url(#CLIPPATH_22)"  >
<clipPath id="CLIPPATH_22" >
	<rect transform="matrix(1 0 0 1 -2.73 -8.18)" id="clip5_1564_290296" x="-11.5" y="-11.5" rx="0" ry="0" width="23" height="23" />
</clipPath>
<path style="stroke: none; stroke-width: 1; stroke-dasharray: none; stroke-linecap: butt; stroke-dashoffset: 0; stroke-linejoin: miter; stroke-miterlimit: 4; fill: rgb(188,112,196); fill-rule: nonzero; opacity: 1;" vector-effect="non-scaling-stroke"  transform=" translate(-227.23, -22.68)" d="M 234.836 20.5293 L 234.836 23.1133 C 234.836 24.0623 234.062 24.8359 233.113 24.8359 L 219.619 24.8359 L 219.619 20.5293 L 234.836 20.5293 Z" stroke-linecap="round" />
</g>
		<g transform="matrix(1 0 0 1 5.45 2.73)" clip-path="url(#CLIPPATH_23)"  >
<clipPath id="CLIPPATH_23" >
	<rect transform="matrix(1 0 0 1 -5.45 -2.73)" id="clip5_1564_290296" x="-11.5" y="-11.5" rx="0" ry="0" width="23" height="23" />
</clipPath>
<path style="stroke: none; stroke-width: 1; stroke-dasharray: none; stroke-linecap: butt; stroke-dashoffset: 0; stroke-linejoin: miter; stroke-miterlimit: 4; fill: rgb(188,112,196); fill-rule: nonzero; opacity: 1;" vector-effect="non-scaling-stroke"  transform=" translate(-229.96, -17.23)" d="M 234.836 15.0742 L 225.074 15.0742 L 225.074 19.3808 L 234.836 19.3808 L 234.836 15.0742 Z" stroke-linecap="round" />
</g>
		<g transform="matrix(1 0 0 1 -2.73 -2.73)" clip-path="url(#CLIPPATH_24)"  >
<clipPath id="CLIPPATH_24" >
	<rect transform="matrix(1 0 0 1 2.73 2.73)" id="clip5_1564_290296" x="-11.5" y="-11.5" rx="0" ry="0" width="23" height="23" />
</clipPath>
<path style="stroke: none; stroke-width: 1; stroke-dasharray: none; stroke-linecap: butt; stroke-dashoffset: 0; stroke-linejoin: miter; stroke-miterlimit: 4; fill: rgb(188,112,196); fill-rule: nonzero; opacity: 1;" vector-effect="non-scaling-stroke"  transform=" translate(-221.77, -11.77)" d="M 229.381 9.61914 L 214.164 9.61914 L 214.164 13.9258 L 229.381 13.9258 L 229.381 9.61914 Z" stroke-linecap="round" />
</g>
		<g transform="matrix(1 0 0 1 -5.46 -8.18)" clip-path="url(#CLIPPATH_25)"  >
<clipPath id="CLIPPATH_25" >
	<rect transform="matrix(1 0 0 1 5.46 8.18)" id="clip5_1564_290296" x="-11.5" y="-11.5" rx="0" ry="0" width="23" height="23" />
</clipPath>
<path style="stroke: none; stroke-width: 1; stroke-dasharray: none; stroke-linecap: butt; stroke-dashoffset: 0; stroke-linejoin: miter; stroke-miterlimit: 4; fill: rgb(188,112,196); fill-rule: nonzero; opacity: 1;" vector-effect="non-scaling-stroke"  transform=" translate(-219.04, -6.32)" d="M 223.926 4.16406 L 223.926 8.47069 L 214.164 8.47069 L 214.164 5.88671 C 214.164 4.93769 214.938 4.16406 215.887 4.16406 L 223.926 4.16406 Z" stroke-linecap="round" />
</g>
</g>
</g>
</svg>