<?xml version="1.0" encoding="UTF-8" standalone="no" ?>
<!DOCTYPE svg PUBLIC "-//W3C//DTD SVG 1.1//EN" "http://www.w3.org/Graphics/SVG/1.1/DTD/svg11.dtd">
<svg xmlns="http://www.w3.org/2000/svg" xmlns:xlink="http://www.w3.org/1999/xlink" version="1.1" width="1080" height="1080" viewBox="0 0 1080 1080" xml:space="preserve">
<desc>Created with Fabric.js 5.2.4</desc>
<defs>
</defs>
<rect x="0" y="0" width="100%" height="100%" fill="transparent"></rect>
<g transform="matrix(1 0 0 1 540 540)" id="79e2dda8-629d-4331-acb6-f35aeb1a0cb1"  >
</g>
<g transform="matrix(1 0 0 1 540 540)" id="0cb21966-0ab0-402b-b842-8e43426a2449"  >
<rect style="stroke: none; stroke-width: 1; stroke-dasharray: none; stroke-linecap: butt; stroke-dashoffset: 0; stroke-linejoin: miter; stroke-miterlimit: 4; fill: rgb(255,255,255); fill-rule: nonzero; opacity: 1; visibility: hidden;" vector-effect="non-scaling-stroke"  x="-540" y="-540" rx="0" ry="0" width="1080" height="1080" />
</g>
<g transform="matrix(46.96 0 0 46.96 540 540)"  >
<g style=""   >
		<g transform="matrix(1 0 0 1 -6.99 -7.99)"  >
<path style="stroke: none; stroke-width: 1; stroke-dasharray: none; stroke-linecap: butt; stroke-dashoffset: 0; stroke-linejoin: miter; stroke-miterlimit: 4; fill: rgb(255,255,255); fill-rule: nonzero; opacity: 1;" vector-effect="non-scaling-stroke"  transform=" translate(-187.51, -6.17)" d="M 184.957 4.27539 L 184.957 8.05601 L 190.065 4.27539 L 184.957 4.27539 Z" stroke-linecap="round" />
</g>
		<g transform="matrix(1 0 0 1 -6.47 -2.53)"  >
<path style="stroke: none; stroke-width: 1; stroke-dasharray: none; stroke-linecap: butt; stroke-dashoffset: 0; stroke-linejoin: miter; stroke-miterlimit: 4; fill: rgb(255,56,51); fill-rule: nonzero; opacity: 1;" vector-effect="non-scaling-stroke"  transform=" translate(-188.03, -11.62)" d="M 190.065 4.27539 L 184.957 8.05601 L 184.957 18.9578 L 191.097 4.27539 L 190.065 4.27539 Z" stroke-linecap="round" />
</g>
		<g transform="matrix(1 0 0 1 5.22 4.2)"  >
<path style="stroke: none; stroke-width: 1; stroke-dasharray: none; stroke-linecap: butt; stroke-dashoffset: 0; stroke-linejoin: miter; stroke-miterlimit: 4; fill: rgb(255,56,51); fill-rule: nonzero; opacity: 1;" vector-effect="non-scaling-stroke"  transform=" translate(-199.72, -18.36)" d="M 204.549 23.8681 L 204.549 12.8438 L 194.899 23.8681 L 204.549 23.8681 Z" stroke-linecap="round" />
</g>
		<g transform="matrix(1 0 0 1 6.23 -4.33)"  >
<path style="stroke: none; stroke-width: 1; stroke-dasharray: none; stroke-linecap: butt; stroke-dashoffset: 0; stroke-linejoin: miter; stroke-miterlimit: 4; fill: rgb(232,126,126); fill-rule: nonzero; opacity: 1;" vector-effect="non-scaling-stroke"  transform=" translate(-200.73, -9.82)" d="M 204.549 12.3814 L 204.549 4.27539 L 200.581 4.27539 L 196.905 15.3647 L 204.549 12.3814 Z" stroke-linecap="round" />
</g>
		<g transform="matrix(1 0 0 1 -3.57 5.47)"  >
<path style="stroke: none; stroke-width: 1; stroke-dasharray: none; stroke-linecap: butt; stroke-dashoffset: 0; stroke-linejoin: miter; stroke-miterlimit: 4; fill: rgb(232,126,126); fill-rule: nonzero; opacity: 1;" vector-effect="non-scaling-stroke"  transform=" translate(-190.93, -19.62)" d="M 184.957 20.8269 L 184.957 23.868 L 194.088 23.868 L 196.905 15.3652 L 184.957 20.8269 Z" stroke-linecap="round" />
</g>
		<g transform="matrix(1 0 0 1 4.82 3.97)"  >
<path style="stroke: none; stroke-width: 1; stroke-dasharray: none; stroke-linecap: butt; stroke-dashoffset: 0; stroke-linejoin: miter; stroke-miterlimit: 4; fill: rgb(255,255,255); fill-rule: nonzero; opacity: 1;" vector-effect="non-scaling-stroke"  transform=" translate(-199.32, -18.12)" d="M 196.905 15.3642 L 194.087 23.867 L 194.899 23.867 L 204.549 12.8426 L 204.549 12.3809 L 196.905 15.3642 Z" stroke-linecap="round" />
</g>
		<g transform="matrix(1 0 0 1 -1.73 -1.6)"  >
<path style="stroke: none; stroke-width: 1; stroke-dasharray: none; stroke-linecap: butt; stroke-dashoffset: 0; stroke-linejoin: miter; stroke-miterlimit: 4; fill: rgb(226,7,54); fill-rule: nonzero; opacity: 1;" vector-effect="non-scaling-stroke"  transform=" translate(-192.77, -12.55)" d="M 200.581 4.27539 L 191.097 4.27539 L 184.957 18.9577 L 184.957 20.8264 L 196.905 15.3647 L 200.581 4.27539 Z" stroke-linecap="round" />
</g>
		<g transform="matrix(1 0 0 1 0 0)"  >
<path style="stroke: none; stroke-width: 1; stroke-dasharray: none; stroke-linecap: butt; stroke-dashoffset: 0; stroke-linejoin: miter; stroke-miterlimit: 4; fill: rgb(0,0,0); fill-rule: nonzero; opacity: 1;" vector-effect="non-scaling-stroke"  transform=" translate(-194.5, -14.15)" d="M 205.765 12.2552 C 205.677 12.1705 205.569 12.1095 205.451 12.078 C 205.333 12.0464 205.209 12.0453 205.09 12.0748 L 205.09 3.73437 L 201.317 3.73437 C 201.333 3.6015 201.299 3.46744 201.222 3.35807 C 201.145 3.2487 201.03 3.17179 200.899 3.14219 C 200.769 3.1126 200.632 3.13241 200.515 3.1978 C 200.398 3.26319 200.31 3.36953 200.267 3.49628 L 200.188 3.73437 L 191.851 3.73437 C 191.851 3.62748 191.827 3.52187 191.782 3.42516 C 191.736 3.32846 191.67 3.24309 191.587 3.17521 C 191.461 3.06601 191.3 3.00415 191.133 3.0002 C 190.966 2.99625 190.803 3.05046 190.671 3.15357 L 189.888 3.73437 L 184.416 3.73437 L 184.416 7.78555 L 183.301 8.61165 C 183.23 8.6468 183.168 8.69711 183.118 8.75903 C 183.069 8.82095 183.034 8.89296 183.015 8.96999 C 182.996 9.04701 182.995 9.12717 183.011 9.20479 C 183.027 9.28241 183.059 9.35561 183.107 9.41921 C 183.154 9.48282 183.215 9.53527 183.284 9.57288 C 183.354 9.61048 183.431 9.63231 183.51 9.63684 C 183.589 9.64136 183.668 9.62846 183.742 9.59904 C 183.816 9.56963 183.882 9.52443 183.936 9.46662 L 184.409 9.10588 L 184.409 18.846 L 183.687 20.5668 C 183.626 20.683 183.597 20.8138 183.605 20.945 C 183.612 21.0761 183.656 21.2028 183.73 21.3112 C 183.804 21.4196 183.907 21.5057 184.026 21.5601 C 184.146 21.6146 184.278 21.6353 184.409 21.6202 L 184.409 24.4087 L 193.337 24.4087 L 193.315 24.4737 L 193.315 24.5638 C 193.312 24.7337 193.369 24.8991 193.476 25.0311 C 193.583 25.1631 193.733 25.2531 193.9 25.2853 C 194.043 25.3176 194.192 25.3055 194.328 25.2508 C 194.464 25.196 194.58 25.1011 194.661 24.9787 L 195.188 24.4268 L 205.09 24.4268 L 205.09 14.0012 L 205.887 13.1643 L 205.941 13.0741 C 206.001 12.9362 206.016 12.7831 205.984 12.6364 C 205.952 12.4896 205.876 12.3563 205.765 12.2552 Z M 204.008 12.4969 L 197.55 15.1303 L 200.97 4.81661 L 204.008 4.81661 L 204.008 12.4969 Z M 203.856 13.727 L 194.895 23.1461 L 197.103 16.4831 L 203.856 13.727 Z M 196.234 15.6678 L 185.498 20.0473 L 185.498 19.0661 L 191.458 4.81661 L 199.83 4.81661 L 196.234 15.6678 Z M 185.498 4.81661 L 188.427 4.81661 L 185.498 6.98108 L 185.498 4.81661 Z M 185.498 8.33027 L 190.242 4.81661 L 190.285 4.81661 L 185.498 16.2595 L 185.498 8.33027 Z M 185.498 23.3265 L 185.498 21.2161 L 195.786 17.0206 L 193.694 23.3265 L 185.498 23.3265 Z M 204.008 23.3265 L 196.219 23.3265 L 204.008 15.1375 L 204.008 23.3265 Z" stroke-linecap="round" />
</g>
</g>
</g>
</svg>