<?xml version="1.0" encoding="UTF-8" standalone="no" ?>
<!DOCTYPE svg PUBLIC "-//W3C//DTD SVG 1.1//EN" "http://www.w3.org/Graphics/SVG/1.1/DTD/svg11.dtd">
<svg xmlns="http://www.w3.org/2000/svg" xmlns:xlink="http://www.w3.org/1999/xlink" version="1.1" width="1080" height="1080" viewBox="0 0 1080 1080" xml:space="preserve">
<desc>Created with Fabric.js 5.2.4</desc>
<defs>
</defs>
<g transform="matrix(1 0 0 1 540 540)" id="0cb21966-0ab0-402b-b842-8e43426a2449"  >
<rect style="stroke: none; stroke-width: 1; stroke-dasharray: none; stroke-linecap: butt; stroke-dashoffset: 0; stroke-linejoin: miter; stroke-miterlimit: 4; fill: rgb(255,255,255); fill-rule: nonzero; opacity: 1; visibility: hidden;" vector-effect="non-scaling-stroke"  x="-540" y="-540" rx="0" ry="0" width="1080" height="1080" />
</g>
<g transform="matrix(1 0 0 1 540 540)" id="79e2dda8-629d-4331-acb6-f35aeb1a0cb1"  >
</g>
<g transform="matrix(46.48 0 0 46.48 540 540)"  >
<g style=""   >
		<g transform="matrix(1 0 0 1 -2.85 -6.99)" clip-path="url(#CLIPPATH_3)"  >
<clipPath id="CLIPPATH_3" >
	<rect transform="matrix(1 0 0 1 2.84 7)" id="clip4_1564_290296" clip-path="url(#undefined)" x="-11.8594" y="-11.5" rx="0" ry="0" width="23.7188" height="23" />
</clipPath>
<path style="stroke: none; stroke-width: 1; stroke-dasharray: none; stroke-linecap: butt; stroke-dashoffset: 0; stroke-linejoin: miter; stroke-miterlimit: 4; fill: rgb(255,255,255); fill-rule: nonzero; opacity: 1;" vector-effect="non-scaling-stroke"  transform=" translate(-71.66, -7.5)" d="M 74.98 10.7909 L 74.98 7.50092 C 74.98 6.85022 74.7855 6.21414 74.4212 5.6731 C 74.0569 5.13207 73.539 4.71038 72.9332 4.46137 C 72.3273 4.21236 71.6606 4.14721 71.0175 4.27416 C 70.3743 4.4011 69.7835 4.71444 69.3198 5.17455 C 68.8561 5.63466 68.5403 6.22088 68.4123 6.85907 C 68.2844 7.49727 68.3501 8.15877 68.601 8.75994 C 68.852 9.3611 69.277 9.87493 69.8222 10.2364 C 70.3675 10.5979 71.0085 10.7909 71.6643 10.7909 L 74.98 10.7909 Z" stroke-linecap="round" />
</g>
		<g transform="matrix(1 0 0 1 4.89 -6.98)" clip-path="url(#CLIPPATH_4)"  >
<clipPath id="CLIPPATH_4" >
	<rect transform="matrix(1 0 0 1 -4.9 6.98)" id="clip4_1564_290296" clip-path="url(#undefined)" x="-11.8594" y="-11.5" rx="0" ry="0" width="23.7188" height="23" />
</clipPath>
<path style="stroke: none; stroke-width: 1; stroke-dasharray: none; stroke-linecap: butt; stroke-dashoffset: 0; stroke-linejoin: miter; stroke-miterlimit: 4; fill: rgb(255,255,255); fill-rule: nonzero; opacity: 1;" vector-effect="non-scaling-stroke"  transform=" translate(-79.4, -7.52)" d="M 81.7337 9.85134 C 82.1221 9.46998 82.4095 8.99928 82.5704 8.48109 C 82.7312 7.96291 82.7605 7.41331 82.6556 6.88118 C 82.5508 6.34905 82.315 5.85089 81.9692 5.43101 C 81.6235 5.01114 81.1785 4.68256 80.6739 4.4745 C 80.1693 4.26645 79.6207 4.18537 79.0769 4.23848 C 78.533 4.29158 78.0109 4.47723 77.5568 4.77891 C 77.1028 5.08059 76.7309 5.48894 76.4743 5.96764 C 76.2177 6.44634 76.0843 6.98056 76.086 7.52276 L 76.086 10.8127 L 79.4016 10.8127 C 79.835 10.8126 80.264 10.7276 80.6642 10.5626 C 81.0644 10.3976 81.4278 10.1559 81.7337 9.85134 L 81.7337 9.85134 Z" stroke-linecap="round" />
</g>
		<g transform="matrix(1 0 0 1 -6.12 3.93)" clip-path="url(#CLIPPATH_5)"  >
<clipPath id="CLIPPATH_5" >
	<rect transform="matrix(1 0 0 1 6.11 -3.92)" id="clip4_1564_290296" clip-path="url(#undefined)" x="-11.8594" y="-11.5" rx="0" ry="0" width="23.7188" height="23" />
</clipPath>
<path style="stroke: none; stroke-width: 1; stroke-dasharray: none; stroke-linecap: butt; stroke-dashoffset: 0; stroke-linejoin: miter; stroke-miterlimit: 4; fill: rgb(248,205,14); fill-rule: nonzero; opacity: 1;" vector-effect="non-scaling-stroke"  transform=" translate(-68.39, -18.42)" d="M 66.0464 18.3373 C 66.0464 21.4116 67.9695 23.8425 70.7289 24.5517 L 70.7289 12.291 C 68.0211 13.2232 66.0464 15.6578 66.0464 18.3373 Z" stroke-linecap="round" />
</g>
		<g transform="matrix(1 0 0 1 6.03 3.85)" clip-path="url(#CLIPPATH_6)"  >
<clipPath id="CLIPPATH_6" >
	<rect transform="matrix(1 0 0 1 -6.04 -3.85)" id="clip4_1564_290296" clip-path="url(#undefined)" x="-11.8594" y="-11.5" rx="0" ry="0" width="23.7188" height="23" />
</clipPath>
<path style="stroke: none; stroke-width: 1; stroke-dasharray: none; stroke-linecap: butt; stroke-dashoffset: 0; stroke-linejoin: miter; stroke-miterlimit: 4; fill: rgb(248,205,14); fill-rule: nonzero; opacity: 1;" vector-effect="non-scaling-stroke"  transform=" translate(-80.54, -18.35)" d="M 78.5727 24.782 C 79.5507 24.7003 80.5019 24.4226 81.3688 23.9659 C 82.2357 23.5091 83.0002 22.8827 83.6162 22.1245 C 82.9411 22.3004 82.2313 22.2982 81.5573 22.118 C 80.8833 21.9378 80.2684 21.5859 79.7737 21.0973 L 80.5474 20.3223 C 81.0884 20.857 81.819 21.1603 82.5827 21.1671 C 83.3463 21.174 84.0823 20.8838 84.633 20.3588 C 84.8777 19.7126 85.0026 19.0277 85.0014 18.3373 C 85.0239 17.4932 84.8741 16.6533 84.5609 15.8681 C 84.2478 15.0829 83.7779 14.3687 83.1794 13.7684 C 82.5809 13.168 81.8663 12.694 81.0784 12.3748 C 80.2905 12.0556 79.4457 11.8978 78.5948 11.9109 L 76.0859 11.9109 L 76.0859 24.782 L 78.5727 24.782 Z M 80.179 15.8077 C 80.4086 15.8077 80.6332 15.8753 80.8241 16.002 C 81.015 16.1287 81.1637 16.3088 81.2515 16.5194 C 81.3392 16.73 81.3619 16.9617 81.3169 17.1852 C 81.2718 17.4087 81.1609 17.6138 80.9982 17.7747 C 80.8356 17.9356 80.6284 18.045 80.4031 18.089 C 80.1777 18.133 79.9443 18.1097 79.7323 18.022 C 79.5203 17.9343 79.3393 17.7861 79.2123 17.5963 C 79.0852 17.4064 79.0177 17.1834 79.0185 16.9555 C 79.0185 16.8045 79.0485 16.6549 79.1069 16.5154 C 79.1652 16.3759 79.2508 16.2492 79.3586 16.1426 C 79.4664 16.036 79.5944 15.9515 79.7351 15.894 C 79.8759 15.8366 80.0267 15.8072 80.179 15.8077 Z" stroke-linecap="round" />
</g>
		<g transform="matrix(1 0 0 1 -1.1 3.85)" clip-path="url(#CLIPPATH_7)"  >
<clipPath id="CLIPPATH_7" >
	<rect transform="matrix(1 0 0 1 1.09 -3.84)" id="clip4_1564_290296" clip-path="url(#undefined)" x="-11.8594" y="-11.5" rx="0" ry="0" width="23.7188" height="23" />
</clipPath>
<path style="stroke: none; stroke-width: 1; stroke-dasharray: none; stroke-linecap: butt; stroke-dashoffset: 0; stroke-linejoin: miter; stroke-miterlimit: 4; fill: rgb(248,205,14); fill-rule: nonzero; opacity: 1;" vector-effect="non-scaling-stroke"  transform=" translate(-73.41, -18.34)" d="M 72.4755 11.9099 C 72.2604 11.9279 72.0464 11.9572 71.8345 11.9976 L 71.8345 24.7518 C 72.0297 24.7701 72.2324 24.781 72.435 24.781 L 74.9807 24.781 L 74.9807 11.9062 L 72.4755 11.9062 L 72.4755 11.9099 Z" stroke-linecap="round" />
</g>
		<g transform="matrix(1 0 0 1 5.67 2.46)" clip-path="url(#CLIPPATH_8)"  >
<clipPath id="CLIPPATH_8" >
	<rect transform="matrix(1 0 0 1 -5.68 -2.45)" id="clip4_1564_290296" clip-path="url(#undefined)" x="-11.8594" y="-11.5" rx="0" ry="0" width="23.7188" height="23" />
</clipPath>
<path style="stroke: none; stroke-width: 1; stroke-dasharray: none; stroke-linecap: butt; stroke-dashoffset: 0; stroke-linejoin: miter; stroke-miterlimit: 4; fill: rgb(0,0,0); fill-rule: nonzero; opacity: 1;" vector-effect="non-scaling-stroke"  transform=" translate(-80.18, -16.95)" d="M 80.179 18.1018 C 80.4086 18.1018 80.6329 18.0343 80.8238 17.9077 C 81.0146 17.7812 81.1634 17.6014 81.2512 17.391 C 81.339 17.1806 81.362 16.949 81.3172 16.7257 C 81.2725 16.5023 81.1619 16.2971 80.9996 16.1361 C 80.8373 15.9751 80.6306 15.8654 80.4054 15.821 C 80.1803 15.7765 79.947 15.7993 79.7349 15.8865 C 79.5229 15.9736 79.3416 16.1212 79.2141 16.3106 C 79.0866 16.4999 79.0186 16.7226 79.0186 16.9503 C 79.0186 17.2557 79.1408 17.5486 79.3585 17.7645 C 79.5761 17.9805 79.8713 18.1018 80.179 18.1018 L 80.179 18.1018 Z" stroke-linecap="round" />
</g>
		<g transform="matrix(1 0 0 1 0 0)" clip-path="url(#CLIPPATH_9)"  >
<clipPath id="CLIPPATH_9" >
	<rect transform="matrix(1 0 0 1 -0.01 0.01)" id="clip4_1564_290296" clip-path="url(#undefined)" x="-11.8594" y="-11.5" rx="0" ry="0" width="23.7188" height="23" />
</clipPath>
<path style="stroke: none; stroke-width: 1; stroke-dasharray: none; stroke-linecap: butt; stroke-dashoffset: 0; stroke-linejoin: miter; stroke-miterlimit: 4; fill: rgb(0,0,0); fill-rule: nonzero; opacity: 1;" vector-effect="non-scaling-stroke"  transform=" translate(-74.51, -14.49)" d="M 81.5014 11.3759 C 81.8733 11.1752 82.2144 10.9228 82.5145 10.6265 C 82.9609 10.1821 83.306 9.64777 83.5265 9.05968 C 83.747 8.4716 83.8378 7.84341 83.7927 7.21754 C 83.7477 6.59167 83.5678 5.98267 83.2653 5.43165 C 82.9628 4.88064 82.5447 4.40043 82.0392 4.02344 C 81.5337 3.64645 80.9525 3.38146 80.335 3.24635 C 79.7175 3.11124 79.0779 3.10916 78.4595 3.24025 C 77.8411 3.37133 77.2582 3.63254 76.7502 4.00623 C 76.2422 4.37992 75.8209 4.85739 75.5148 5.40643 C 75.1809 4.79495 74.7053 4.271 74.1272 3.87781 C 73.5491 3.48461 72.885 3.23343 72.1899 3.14499 C 71.4947 3.05655 70.7882 3.13339 70.1289 3.36916 C 69.4695 3.60493 68.8761 3.99288 68.3975 4.50101 C 67.919 5.00913 67.5691 5.62287 67.3767 6.29159 C 67.1842 6.96031 67.1548 7.66485 67.2908 8.34708 C 67.4267 9.02932 67.7242 9.66969 68.1587 10.2154 C 68.5932 10.7611 69.1522 11.1964 69.7897 11.4856 C 67.1371 12.6188 65.1993 15.068 64.9709 17.795 L 62.8931 17.795 L 62.8931 18.8917 L 64.9672 18.8917 C 65.0703 20.7859 65.9042 22.5681 67.2959 23.8687 C 68.6877 25.1693 70.5304 25.8886 72.4422 25.8774 L 78.6389 25.8774 C 82.7577 25.5557 86.1286 22.1744 86.1286 18.336 C 86.1467 16.8499 85.7156 15.3925 84.8908 14.1518 C 84.066 12.9112 82.8854 11.9443 81.5014 11.3759 L 81.5014 11.3759 Z M 70.7291 24.5614 C 67.9697 23.8303 66.0466 21.4103 66.0466 18.347 C 66.0466 15.6675 68.0324 13.2293 70.7291 12.3008 L 70.7291 24.5614 Z M 74.9806 24.7807 L 72.4422 24.7807 C 72.2396 24.7807 72.037 24.7807 71.8417 24.7515 L 71.8417 11.9974 C 72.0537 11.9569 72.2677 11.9276 72.4828 11.9096 L 74.9879 11.9096 L 74.9806 24.7807 Z M 74.9806 10.8056 L 71.6649 10.8056 C 70.7885 10.8039 69.9481 10.4598 69.3255 9.8479 C 68.937 9.46654 68.6496 8.99584 68.4888 8.47765 C 68.3279 7.95947 68.2986 7.40987 68.4035 6.87774 C 68.5084 6.34561 68.7442 5.84746 69.0899 5.42758 C 69.4357 5.0077 69.8806 4.67912 70.3853 4.47107 C 70.8899 4.26301 71.4385 4.18193 71.9823 4.23504 C 72.5261 4.28815 73.0483 4.4738 73.5023 4.77547 C 73.9564 5.07715 74.3283 5.4855 74.5849 5.9642 C 74.8415 6.44291 74.9749 6.97712 74.9732 7.51933 L 74.9806 10.8056 Z M 76.0858 7.51567 C 76.0858 6.86497 76.2803 6.22889 76.6446 5.68786 C 77.0089 5.14682 77.5268 4.72514 78.1326 4.47613 C 78.7385 4.22712 79.4052 4.16196 80.0483 4.28891 C 80.6915 4.41585 81.2823 4.72919 81.746 5.1893 C 82.2097 5.64942 82.5255 6.23563 82.6534 6.87383 C 82.7814 7.51202 82.7157 8.17353 82.4648 8.77469 C 82.2138 9.37586 81.7888 9.88968 81.2436 10.2512 C 80.6983 10.6127 80.0573 10.8056 79.4015 10.8056 L 76.0858 10.8056 L 76.0858 7.51567 Z M 80.5472 20.321 L 79.7736 21.096 C 80.2683 21.5846 80.8831 21.9365 81.5571 22.1167 C 82.2311 22.2969 82.9409 22.2991 83.6161 22.1232 C 82.9991 22.8794 82.2341 23.5037 81.3673 23.9586 C 80.5004 24.4134 79.5498 24.6894 78.5726 24.7698 L 76.0858 24.7698 L 76.0858 11.906 L 78.5947 11.906 C 79.4477 11.8898 80.2952 12.0455 81.086 12.3636 C 81.8767 12.6817 82.5942 13.1556 83.1951 13.7566 C 83.796 14.3577 84.2678 15.0734 84.5821 15.8605 C 84.8963 16.6476 85.0465 17.4897 85.0234 18.336 C 85.0245 19.0264 84.8997 19.7113 84.655 20.3576 C 84.1033 20.8892 83.3626 21.1835 82.5935 21.1766 C 81.8245 21.1698 81.0893 20.8623 80.5472 20.321 L 80.5472 20.321 Z" stroke-linecap="round" />
</g>
</g>
</g>
</svg>