<?xml version="1.0" encoding="UTF-8" standalone="no" ?>
<!DOCTYPE svg PUBLIC "-//W3C//DTD SVG 1.1//EN" "http://www.w3.org/Graphics/SVG/1.1/DTD/svg11.dtd">
<svg xmlns="http://www.w3.org/2000/svg" xmlns:xlink="http://www.w3.org/1999/xlink" version="1.1" width="1080" height="1080" viewBox="0 0 1080 1080" xml:space="preserve">
<desc>Created with Fabric.js 5.2.4</desc>
<defs>
</defs>
<rect x="0" y="0" width="100%" height="100%" fill="transparent"></rect>
<g transform="matrix(1 0 0 1 540 540)" id="79e2dda8-629d-4331-acb6-f35aeb1a0cb1"  >
</g>
<g transform="matrix(1 0 0 1 540 540)" id="0cb21966-0ab0-402b-b842-8e43426a2449"  >
<rect style="stroke: none; stroke-width: 1; stroke-dasharray: none; stroke-linecap: butt; stroke-dashoffset: 0; stroke-linejoin: miter; stroke-miterlimit: 4; fill: rgb(255,255,255); fill-rule: nonzero; opacity: 1; visibility: hidden;" vector-effect="non-scaling-stroke"  x="-540" y="-540" rx="0" ry="0" width="1080" height="1080" />
</g>
<g transform="matrix(46.96 0 0 46.96 540 540)"  >
<g style=""   >
		<g transform="matrix(1 0 0 1 4.22 -3.69)"  >
<path style="stroke: none; stroke-width: 1; stroke-dasharray: none; stroke-linecap: butt; stroke-dashoffset: 0; stroke-linejoin: miter; stroke-miterlimit: 4; fill: rgb(127,167,104); fill-rule: nonzero; opacity: 1;" vector-effect="non-scaling-stroke"  transform=" translate(-168.72, -10.81)" d="M 168.718 10.8125 L 168.713 10.8125 L 168.713 10.8169 L 168.718 10.8169 L 168.718 10.8125 Z" stroke-linecap="round" />
</g>
		<g transform="matrix(1 0 0 1 7.38 3.75)"  >
<path style="stroke: none; stroke-width: 1; stroke-dasharray: none; stroke-linecap: butt; stroke-dashoffset: 0; stroke-linejoin: miter; stroke-miterlimit: 4; fill: rgb(106,170,100); fill-rule: nonzero; opacity: 1;" vector-effect="non-scaling-stroke"  transform=" translate(-171.88, -18.25)" d="M 168.713 11.4004 L 168.713 25.1068 L 173.687 25.1068 C 174.433 25.1068 175.041 24.5073 175.041 23.7686 L 175.041 18.2265 L 175.041 11.4313 L 168.713 11.4004 Z" stroke-linecap="round" />
</g>
		<g transform="matrix(1 0 0 1 7.27 -7.3)"  >
<path style="stroke: none; stroke-width: 1; stroke-dasharray: none; stroke-linecap: butt; stroke-dashoffset: 0; stroke-linejoin: miter; stroke-miterlimit: 4; fill: rgb(255,255,255); fill-rule: nonzero; opacity: 1;" vector-effect="non-scaling-stroke"  transform=" translate(-171.77, -7.2)" d="M 174.82 5.44003 L 174.82 10.2667 L 168.721 10.2396 L 168.748 4.13281 L 173.513 4.13281 C 174.232 4.13281 174.82 4.72067 174.82 5.44003 Z" stroke-linecap="round" />
</g>
		<g transform="matrix(1 0 0 1 0.09 7.24)"  >
<path style="stroke: none; stroke-width: 1; stroke-dasharray: none; stroke-linecap: butt; stroke-dashoffset: 0; stroke-linejoin: miter; stroke-miterlimit: 4; fill: rgb(106,170,100); fill-rule: nonzero; opacity: 1;" vector-effect="non-scaling-stroke"  transform=" translate(-164.59, -21.74)" d="M 167.901 18.4118 L 167.901 25.0987 L 161.276 25.0987 L 161.276 18.3809 L 167.901 18.4118 Z" stroke-linecap="round" />
</g>
		<g transform="matrix(1 0 0 1 0.01 -0.08)"  >
<path style="stroke: none; stroke-width: 1; stroke-dasharray: none; stroke-linecap: butt; stroke-dashoffset: 0; stroke-linejoin: miter; stroke-miterlimit: 4; fill: rgb(209,176,54); fill-rule: nonzero; opacity: 1;" vector-effect="non-scaling-stroke"  transform=" translate(-164.51, -14.42)" d="M 167.994 10.9704 L 167.959 17.9049 L 161.033 17.8662 L 161.064 10.9434 L 167.994 10.9704 Z" stroke-linecap="round" />
</g>
		<g transform="matrix(1 0 0 1 0.02 -7.32)"  >
<path style="stroke: none; stroke-width: 1; stroke-dasharray: none; stroke-linecap: butt; stroke-dashoffset: 0; stroke-linejoin: miter; stroke-miterlimit: 4; fill: rgb(255,255,255); fill-rule: nonzero; opacity: 1;" vector-effect="non-scaling-stroke"  transform=" translate(-164.52, -7.18)" d="M 167.588 4.13281 L 167.561 10.2319 L 161.455 10.2086 L 161.455 4.13281 L 167.588 4.13281 Z" stroke-linecap="round" />
</g>
		<g transform="matrix(1 0 0 1 -7.11 7.24)"  >
<path style="stroke: none; stroke-width: 1; stroke-dasharray: none; stroke-linecap: butt; stroke-dashoffset: 0; stroke-linejoin: miter; stroke-miterlimit: 4; fill: rgb(106,170,100); fill-rule: nonzero; opacity: 1;" vector-effect="non-scaling-stroke"  transform=" translate(-157.39, -21.74)" d="M 160.789 18.3457 L 160.789 25.1332 L 155.444 25.1332 C 154.647 25.1332 153.998 24.4834 153.998 23.6867 L 153.998 18.3457 L 160.789 18.3457 Z" stroke-linecap="round" />
</g>
		<g transform="matrix(1 0 0 1 -7.28 -0.05)"  >
<path style="stroke: none; stroke-width: 1; stroke-dasharray: none; stroke-linecap: butt; stroke-dashoffset: 0; stroke-linejoin: miter; stroke-miterlimit: 4; fill: rgb(255,255,255); fill-rule: nonzero; opacity: 1;" vector-effect="non-scaling-stroke"  transform=" translate(-157.22, -14.45)" d="M 160.29 11.4004 L 160.259 17.4994 L 154.141 17.4994 L 154.141 11.4004 L 160.29 11.4004 Z" stroke-linecap="round" />
</g>
		<g transform="matrix(1 0 0 1 -7.28 -7.31)"  >
<path style="stroke: none; stroke-width: 1; stroke-dasharray: none; stroke-linecap: butt; stroke-dashoffset: 0; stroke-linejoin: miter; stroke-miterlimit: 4; fill: rgb(255,255,255); fill-rule: nonzero; opacity: 1;" vector-effect="non-scaling-stroke"  transform=" translate(-157.22, -7.19)" d="M 160.294 4.13281 L 160.294 10.2396 L 154.141 10.2396 L 154.141 5.44003 C 154.141 4.72067 154.729 4.13281 155.452 4.13281 L 160.294 4.13281 L 160.294 4.13281 Z" stroke-linecap="round" />
</g>
		<g transform="matrix(1 0 0 1 0 0)"  >
<path style="stroke: none; stroke-width: 1; stroke-dasharray: none; stroke-linecap: butt; stroke-dashoffset: 0; stroke-linejoin: miter; stroke-miterlimit: 4; fill: rgb(0,0,0); fill-rule: nonzero; opacity: 1;" vector-effect="non-scaling-stroke"  transform=" translate(-164.5, -14.5)" d="M 173.533 3 L 155.471 3 C 154.11 3 153 4.1061 153 5.46746 L 153 23.5287 C 153 24.89 154.11 26 155.471 26 L 173.533 26 C 174.894 26 176 24.89 176 23.5287 L 176 5.46746 C 176 4.10997 174.894 3 173.533 3 Z M 168.733 10.8433 L 168.737 10.8433 L 168.737 10.8471 L 168.733 10.8471 L 168.733 10.8433 Z M 154.164 11.4311 L 160.313 11.4311 L 160.282 17.5302 L 154.164 17.5302 L 154.164 11.4311 Z M 160.313 24.8436 L 155.471 24.8436 C 154.748 24.8436 154.16 24.2558 154.16 23.5325 L 154.16 18.6866 L 160.313 18.6866 L 160.313 24.8436 Z M 160.313 10.2709 L 154.164 10.2709 L 154.164 5.46746 C 154.164 4.74811 154.752 4.16025 155.475 4.16025 L 160.317 4.16025 L 160.317 10.2709 L 160.313 10.2709 Z M 167.573 24.8436 L 161.474 24.8436 L 161.474 18.6595 L 167.573 18.6904 L 167.573 24.8436 Z M 167.542 17.5263 L 161.443 17.4954 L 161.47 11.3963 L 167.573 11.4195 L 167.542 17.5263 Z M 167.58 10.2632 L 161.474 10.24 L 161.474 4.16025 L 167.608 4.16025 L 167.58 10.2632 Z M 174.84 23.5325 C 174.84 24.2558 174.252 24.8436 173.533 24.8436 L 168.733 24.8436 L 168.733 18.6866 L 174.84 18.6866 L 174.84 23.5325 Z M 174.84 17.5263 L 168.706 17.5263 L 168.733 11.4273 L 174.84 11.4543 L 174.84 17.5263 Z M 174.84 10.298 L 168.741 10.2709 L 168.768 4.16412 L 173.533 4.16412 C 174.252 4.16412 174.84 4.75198 174.84 5.47133 L 174.84 10.298 Z" stroke-linecap="round" />
</g>
</g>
</g>
</svg>